:FULLY-SPECIFIED
:FORCE-ALL-JOINTS-BE-3DOF
:DEGREES
2446
root 1.15498 14.449 -23.3103 0.576147 63.0612 -2.09516
lfemur -44.7762 10.8847 -8.96797
ltibia 87.6217 -0 0
lfoot -12.7611 24.7028 -0.166568
ltoes -10.4949 0 0
rfemur -43.4675 -4.40168 16.664
rtibia 68.8784 -0 0
rfoot -13.8065 -15.8429 1.92368
rtoes -13.6429 0 0
lowerback 17.3574 2.37044 0.482257
upperback -1.23965 3.50348 1.89293
thorax -11.0257 1.69393 0.852399
lowerneck -3.97493 -3.31942 -4.1149
upperneck 5.57268 -4.24613 1.65862
head 3.49538 -2.20357 1.15736
lclavicle 1.76206e-14 -1.44818e-14 1.42787e-31
lhumerus -11.1517 -20.6152 82.6935
lradius 109.574 -0 0
lwrist 49.2385 0 0
lhand -24.9349 52.7465 -1.84225
lfingers 7.12502 -0 0
lthumb 1.52628 81.4227 -1.98434
rclavicle 1.76206e-14 -1.44818e-14 1.42787e-31
rhumerus -9.78617 34.3845 -74.5961
rradius 102.803 -0 0
rwrist -23.0015 0 0
rhand -11.1268 -27.73 2.19608
rfingers 7.12502 -0 0
rthumb 14.8624 -56.3358 2.24925
2447
root 1.1837 14.442 -23.3132 0.53372 63.3187 -2.12747
lfemur -44.6975 10.8127 -9.01316
ltibia 87.6415 -0 0
lfoot -12.8895 24.7301 -0.167976
ltoes -10.7817 0 0
rfemur -43.5949 -4.53344 16.5469
rtibia 68.7622 -0 0
rfoot -13.6185 -15.6262 1.9401
rtoes -13.4379 0 0
lowerback 17.355 2.34201 0.443496
upperback -1.23217 3.45909 1.90578
thorax -11.0165 1.67588 0.900299
lowerneck -3.89479 -3.43731 -4.21558
upperneck 5.53532 -4.40921 1.7786
head 3.48585 -2.28365 1.20646
lclavicle 1.75475e-14 -1.44407e-14 1.43991e-31
lhumerus -11.4089 -20.9362 82.8655
lradius 109.536 -0 0
lwrist 49.543 0 0
lhand -24.6207 52.622 -1.85804
lfingers 7.12502 -0 0
lthumb 1.82898 81.2836 -2.00134
rclavicle 1.75475e-14 -1.44407e-14 1.43991e-31
rhumerus -9.48041 33.9461 -74.323
rradius 102.514 -0 0
rwrist -22.6016 0 0
rhand -11.3767 -27.9163 2.21486
rfingers 7.12502 -0 0
rthumb 14.6213 -56.5336 2.26848
2448
root 1.21241 14.435 -23.316 0.490584 63.5761 -2.16051
lfemur -44.6187 10.7408 -9.05845
ltibia 87.6613 -0 0
lfoot -13.0179 24.7574 -0.169323
ltoes -11.0686 0 0
rfemur -43.7221 -4.66545 16.43
rtibia 68.6461 -0 0
rfoot -13.4305 -15.4095 1.9558
rtoes -13.233 0 0
lowerback 17.3526 2.31359 0.404736
upperback -1.2247 3.41471 1.91861
thorax -11.0073 1.65782 0.948195
lowerneck -3.81443 -3.55505 -4.31644
upperneck 5.49761 -4.57222 1.89872
head 3.47625 -2.36373 1.25557
lclavicle 1.74744e-14 -1.43997e-14 1.45143e-31
lhumerus -11.6678 -21.2565 83.0396
lradius 109.498 -0 0
lwrist 49.8475 0 0
lhand -24.3065 52.4974 -1.87314
lfingers 7.12502 -0 0
lthumb 2.13172 81.1444 -2.0176
rclavicle 1.74744e-14 -1.43997e-14 1.45143e-31
rhumerus -9.17872 33.5064 -74.0541
rradius 102.225 -0 0
rwrist -22.2017 0 0
rhand -11.6267 -28.1026 2.23282
rfingers 7.12502 -0 0
rthumb 14.3802 -56.7315 2.28688
2449
root 1.24113 14.428 -23.3189 0.446718 63.8335 -2.19428
lfemur -44.5399 10.669 -9.10382
ltibia 87.6811 -0 0
lfoot -13.1462 24.7847 -0.170609
ltoes -11.3554 0 0
rfemur -43.849 -4.79773 16.3135
rtibia 68.5299 -0 0
rfoot -13.2424 -15.1927 1.97079
rtoes -13.028 0 0
lowerback 17.3503 2.28516 0.365979
upperback -1.21724 3.37032 1.93145
thorax -10.9981 1.63976 0.996088
lowerneck -3.73384 -3.67266 -4.41747
upperneck 5.45954 -4.73514 2.01897
head 3.46658 -2.4438 1.3047
lclavicle 1.74013e-14 -1.43587e-14 1.46243e-31
lhumerus -11.9283 -21.5761 83.2155
lradius 109.461 -0 0
lwrist 50.152 0 0
lhand -23.9923 52.3728 -1.88757
lfingers 7.12502 -0 0
lthumb 2.4345 81.0051 -2.03313
rclavicle 1.74013e-14 -1.43587e-14 1.46243e-31
rhumerus -8.88102 33.0656 -73.7892
rradius 101.936 -0 0
rwrist -21.8018 0 0
rhand -11.8768 -28.2891 2.24997
rfingers 7.12502 -0 0
rthumb 14.139 -56.9295 2.30445
2450
root 1.26984 14.421 -23.3217 0.402099 64.091 -2.22882
lfemur -44.4611 10.5972 -9.14929
ltibia 87.701 -0 0
lfoot -13.2746 24.812 -0.171834
ltoes -11.6423 0 0
rfemur -43.9757 -4.93025 16.1972
rtibia 68.4138 -0 0
rfoot -13.0543 -14.9759 1.98507
rtoes -12.823 0 0
lowerback 17.3479 2.25673 0.327223
upperback -1.20979 3.32593 1.94427
thorax -10.9889 1.62169 1.04398
lowerneck -3.65304 -3.79012 -4.51869
upperneck 5.42112 -4.89799 2.13936
head 3.45685 -2.52386 1.35385
lclavicle 1.73282e-14 -1.43176e-14 1.4729e-31
lhumerus -12.1904 -21.8949 83.3934
lradius 109.423 -0 0
lwrist 50.4565 0 0
lhand -23.6781 52.248 -1.90131
lfingers 7.12502 -0 0
lthumb 2.73733 80.8657 -2.04792
rclavicle 1.73282e-14 -1.43176e-14 1.4729e-31
rhumerus -8.58721 32.6236 -73.5284
rradius 101.646 -0 0
rwrist -21.4019 0 0
rhand -12.1269 -28.4756 2.26631
rfingers 7.12502 -0 0
rthumb 13.8977 -57.1276 2.32118
2451
root 1.29856 14.414 -23.3246 0.356704 64.3484 -2.26415
lfemur -44.3822 10.5255 -9.19485
ltibia 87.7208 -0 0
lfoot -13.4029 24.8393 -0.172997
ltoes -11.9291 0 0
rfemur -44.1022 -5.06304 16.0812
rtibia 68.2976 -0 0
rfoot -12.8661 -14.759 1.99864
rtoes -12.618 0 0
lowerback 17.3456 2.2283 0.28847
upperback -1.20236 3.28153 1.95709
thorax -10.9797 1.60361 1.09186
lowerneck -3.57203 -3.90745 -4.62008
upperneck 5.38235 -5.06076 2.25989
head 3.44704 -2.60391 1.40301
lclavicle 1.72551e-14 -1.42766e-14 1.48285e-31
lhumerus -12.4541 -22.2129 83.5733
lradius 109.385 -0 0
lwrist 50.761 0 0
lhand -23.3638 52.1232 -1.91436
lfingers 7.12502 -0 0
lthumb 3.04019 80.7262 -2.06198
rclavicle 1.72551e-14 -1.42766e-14 1.48285e-31
rhumerus -8.29722 32.1805 -73.2716
rradius 101.357 -0 0
rwrist -21.0019 0 0
rhand -12.3771 -28.6622 2.28183
rfingers 7.12502 -0 0
rthumb 13.6564 -57.3257 2.33708
